<?xml version="1.0" encoding="UTF-8" standalone="no"?>
<!-- Created with Inkscape (http://www.inkscape.org/) -->

<svg
   xmlns:dc="http://purl.org/dc/elements/1.1/"
   xmlns:cc="http://creativecommons.org/ns#"
   xmlns:rdf="http://www.w3.org/1999/02/22-rdf-syntax-ns#"
   xmlns:svg="http://www.w3.org/2000/svg"
   xmlns="http://www.w3.org/2000/svg"
   xmlns:sodipodi="http://sodipodi.sourceforge.net/DTD/sodipodi-0.dtd"
   xmlns:inkscape="http://www.inkscape.org/namespaces/inkscape"
   version="1.1"
   id="svg2"
   xml:space="preserve"
   width="140.45888"
   height="46.114906"
   viewBox="0 0 140.45888 46.114907"
   sodipodi:docname="Ngee Ann Polytechnic logo.svg"
   inkscape:version="0.92.5 (2060ec1f9f, 2020-04-08)"><metadata
     id="metadata8"><rdf:RDF><cc:Work
         rdf:about=""><dc:format>image/svg+xml</dc:format><dc:type
           rdf:resource="http://purl.org/dc/dcmitype/StillImage" /><dc:title></dc:title></cc:Work></rdf:RDF></metadata><defs
     id="defs6"><clipPath
       clipPathUnits="userSpaceOnUse"
       id="clipPath178"><path
         d="M 0,0 H 581.102 V 782.362 H 0 Z"
         id="path176"
         inkscape:connector-curvature="0" /></clipPath><clipPath
       clipPathUnits="userSpaceOnUse"
       id="clipPath230"><path
         d="m 251.611,439.916 c -1,0.985 -2.369,1.592 -3.882,1.592 v 0 c -0.374,0 -0.742,-0.037 -1.094,-0.108 v 0 -9.415 c 0.353,0.07 0.719,0.107 1.094,0.107 v 0 c 1.513,0 2.882,-0.607 3.882,-1.591 v 0 c 0.998,0.984 2.37,1.591 3.884,1.591 v 0 c 0.373,0 0.74,-0.037 1.093,-0.107 v 0 9.416 c -0.35,0.071 -0.723,0.107 -1.093,0.107 v 0 c -1.514,0 -2.886,-0.607 -3.884,-1.592"
         id="path228"
         inkscape:connector-curvature="0" /></clipPath><clipPath
       clipPathUnits="userSpaceOnUse"
       id="clipPath242"><path
         d="M 0,0 H 581.102 V 782.362 H 0 Z"
         id="path240"
         inkscape:connector-curvature="0" /></clipPath></defs><sodipodi:namedview
     pagecolor="#ffffff"
     bordercolor="#666666"
     borderopacity="1"
     objecttolerance="10"
     gridtolerance="10"
     guidetolerance="10"
     inkscape:pageopacity="0"
     inkscape:pageshadow="2"
     inkscape:window-width="1920"
     inkscape:window-height="1017"
     id="namedview4"
     showgrid="false"
     inkscape:snap-global="false"
     fit-margin-top="0"
     fit-margin-left="0"
     fit-margin-right="0"
     fit-margin-bottom="0"
     inkscape:zoom="12.565956"
     inkscape:cx="70.22944"
     inkscape:cy="23.057458"
     inkscape:window-x="-8"
     inkscape:window-y="-8"
     inkscape:window-maximized="1"
     inkscape:current-layer="g10" /><g
     id="g10"
     inkscape:groupmode="layer"
     inkscape:label="NPnews-2020-Issue-2"
     transform="matrix(1.3333333,0,0,-1.3333333,-317.72439,608.43266)"><path
       d="m 238.2933,421.73833 h 105.34416 v 34.58618 H 238.2933 Z"
       style="fill:#ffffff;fill-opacity:1;fill-rule:nonzero;stroke:none;stroke-width:0.08952131"
       id="path12"
       inkscape:connector-curvature="0" /><path
       inkscape:connector-curvature="0"
       id="path40"
       style="fill:#003d79;fill-opacity:1;fill-rule:nonzero;stroke:none"
       d="m 262.7882,430.3905 h 0.279 c 0.739,0 1.364,0.315 1.364,1.137 0,0.712 -0.371,1.127 -1.57,1.127 h -0.559 v -3.896 h 0.486 z m 0,1.83 h 0.129 c 0.481,0 1.059,-0.074 1.059,-0.683 0,-0.62 -0.538,-0.713 -1.032,-0.713 h -0.156 z" /><path
       inkscape:connector-curvature="0"
       id="path44"
       style="fill:#003d79;fill-opacity:1;fill-rule:nonzero;stroke:none"
       d="m 270.9851,432.7362 c -1.116,0 -2.04,-0.914 -2.04,-2.03 0,-1.157 0.914,-2.03 2.04,-2.03 1.126,0 2.04,0.873 2.04,2.03 0,1.116 -0.924,2.03 -2.04,2.03 m 0,-3.606 c -0.842,0 -1.555,0.687 -1.555,1.576 0,0.856 0.641,1.575 1.555,1.575 0.914,0 1.555,-0.719 1.555,-1.575 0,-0.889 -0.713,-1.576 -1.555,-1.576" /><path
       inkscape:connector-curvature="0"
       id="path48"
       style="fill:#003d79;fill-opacity:1;fill-rule:nonzero;stroke:none"
       d="m 310.5737,440.0066 1.512,-3.94 h 2.395 v 0.049 c -0.909,0.462 -1.196,1.355 -1.562,2.265 l -3.317,8.183 h -1.719 l -4.128,-10.497 h 1.317 l 1.483,3.94 z m -0.463,1.18 h -3.142 l 1.58,4.019 z" /><path
       inkscape:connector-curvature="0"
       id="path52"
       style="fill:#003d79;fill-opacity:1;fill-rule:nonzero;stroke:none"
       d="m 278.3404,432.6528 h -0.486 v -3.894 h 1.669 v 0.443 h -1.183 z" /><path
       inkscape:connector-curvature="0"
       id="path56"
       style="fill:#003d79;fill-opacity:1;fill-rule:nonzero;stroke:none"
       d="m 284.8646,430.4523 v -1.695 h 0.485 v 1.695 l 1.271,2.201 h -0.557 l -0.956,-1.663 -0.956,1.663 h -0.558 z" /><path
       inkscape:connector-curvature="0"
       id="path60"
       style="fill:#003d79;fill-opacity:1;fill-rule:nonzero;stroke:none"
       d="m 292.3639,432.2094 h 0.924 v 0.443 h -2.334 v -0.443 h 0.924 v -3.451 h 0.486 z" /><path
       inkscape:connector-curvature="0"
       id="path64"
       style="fill:#003d79;fill-opacity:1;fill-rule:nonzero;stroke:none"
       d="m 298.0291,428.7585 h 2.092 v 0.444 h -1.606 v 1.473 h 1.559 v 0.444 h -1.559 v 1.089 h 1.606 v 0.445 h -2.092 z" /><path
       inkscape:connector-curvature="0"
       id="path76"
       style="fill:#003d79;fill-opacity:1;fill-rule:nonzero;stroke:none"
       d="m 307.9161,432.4724 c -0.295,0.18 -0.641,0.264 -0.982,0.264 -1.147,0 -2.071,-0.899 -2.071,-2.051 0,-1.126 0.919,-2.01 2.03,-2.01 0.34,0 0.723,0.098 1.023,0.274 v 0.574 c -0.29,-0.259 -0.657,-0.403 -1.039,-0.403 -0.868,0 -1.528,0.728 -1.528,1.58 0,0.862 0.665,1.592 1.538,1.592 0.368,0 0.749,-0.136 1.029,-0.383 z" /><path
       inkscape:connector-curvature="0"
       id="path80"
       style="fill:#003d79;fill-opacity:1;fill-rule:nonzero;stroke:none"
       d="m 313.2973,431.0833 v 1.57 h -0.486 v -3.895 h 0.486 v 1.87 h 1.854 v -1.87 h 0.486 v 3.895 h -0.486 v -1.57 z" /><path
       inkscape:connector-curvature="0"
       id="path84"
       style="fill:#003d79;fill-opacity:1;fill-rule:nonzero;stroke:none"
       d="m 320.6519,428.7585 h 0.486 v 2.903 l 2.924,-3.063 v 4.055 h -0.486 v -2.877 l -2.924,3.063 z" /><path
       d="m 329.098,428.759 h 0.486 v 3.894 h -0.486 z"
       style="fill:#003d79;fill-opacity:1;fill-rule:nonzero;stroke:none"
       id="path86"
       inkscape:connector-curvature="0" /><path
       inkscape:connector-curvature="0"
       id="path98"
       style="fill:#003d79;fill-opacity:1;fill-rule:nonzero;stroke:none"
       d="m 337.5062,432.4724 c -0.294,0.18 -0.64,0.264 -0.982,0.264 -1.146,0 -2.07,-0.899 -2.07,-2.051 0,-1.126 0.918,-2.01 2.028,-2.01 0.342,0 0.724,0.098 1.024,0.274 v 0.574 c -0.29,-0.259 -0.656,-0.403 -1.038,-0.403 -0.869,0 -1.528,0.728 -1.528,1.58 0,0.862 0.665,1.592 1.538,1.592 0.368,0 0.749,-0.136 1.028,-0.383 z" /><path
       d="m 262.302,434.191 h 75.215 v 0.338 h -75.215 z"
       style="fill:#003d79;fill-opacity:1;fill-rule:nonzero;stroke:none"
       id="path100"
       inkscape:connector-curvature="0" /><path
       inkscape:connector-curvature="0"
       id="path112"
       style="fill:#003d79;fill-opacity:1;fill-rule:nonzero;stroke:none"
       d="m 282.6328,446.5463 c -0.829,0.175 -1.659,0.272 -2.505,0.272 -3.86,0 -6.588,-2.138 -6.588,-5.567 0,-3.207 2.41,-5.44 6.493,-5.44 1.262,0 2.488,0.231 3.733,0.466 0,0 0,0.491 0,0.73 v 3.67 c 0,0.239 0,0.733 0,0.733 h -2.361 v -0.048 c 0.717,-0.286 0.733,-1.068 0.733,-1.802 v -2.298 c -0.718,-0.207 -1.483,-0.302 -2.217,-0.302 -2.52,0 -4.562,1.945 -4.562,4.515 0,2.567 1.899,4.195 4.387,4.195 0.973,0 2.185,-0.224 2.839,-0.958 h 0.048 z" /><path
       inkscape:connector-curvature="0"
       id="path116"
       style="fill:#003d79;fill-opacity:1;fill-rule:nonzero;stroke:none"
       d="m 286.8882,441.1866 2.648,-0.007 v 1.155 l -2.648,10e-4 v 3.077 c 0.008,0 3.557,0.008 3.557,0.008 v 1.143 c 0,0 -0.526,-0.001 -0.797,-0.001 h -4.386 v -10.496 h 5.553 l 0.607,1.589 h -0.047 c -0.557,-0.475 -2.192,-0.439 -2.462,-0.44 -0.109,0.001 -2.025,0.006 -2.025,0.006 z" /><path
       inkscape:connector-curvature="0"
       id="path120"
       style="fill:#003d79;fill-opacity:1;fill-rule:nonzero;stroke:none"
       d="m 263.8655,444.3135 5.471,-6.938 c 0.702,-0.91 1.457,-1.595 2.709,-1.819 l -0.004,11.006 h -1.524 v -8.102 l -5.838,7.368 -0.573,0.734 h -2.599 v -0.048 c 0.829,-0.478 0.829,-1.117 0.829,-2.01 v -8.438 h 1.529 z" /><path
       inkscape:connector-curvature="0"
       id="path124"
       style="fill:#003d79;fill-opacity:1;fill-rule:nonzero;stroke:none"
       d="m 294.5443,441.1866 2.648,-0.007 v 1.155 l -2.648,10e-4 v 3.077 c 0.009,0 3.557,0.008 3.557,0.008 v 1.143 l -5.182,-0.001 v -10.496 h 5.553 l 0.606,1.589 h -0.047 c -0.557,-0.475 -2.191,-0.439 -2.461,-0.44 -0.109,0.001 -2.026,0.006 -2.026,0.006 z" /><path
       inkscape:connector-curvature="0"
       id="path128"
       style="fill:#003d79;fill-opacity:1;fill-rule:nonzero;stroke:none"
       d="m 317.3059,444.3135 5.471,-6.938 c 0.702,-0.91 1.458,-1.595 2.709,-1.819 l -0.003,11.006 h -1.53 v -8.102 l -5.833,7.368 -0.574,0.734 h -2.598 v -0.048 c 0.829,-0.478 0.829,-1.117 0.829,-2.01 v -8.438 h 1.529 z" /><path
       inkscape:connector-curvature="0"
       id="path132"
       style="fill:#003d79;fill-opacity:1;fill-rule:nonzero;stroke:none"
       d="m 329.3381,444.3135 5.471,-6.938 c 0.701,-0.91 1.457,-1.595 2.709,-1.819 v 11.006 h -1.528 v -8.102 l -5.839,7.368 -0.573,0.734 h -2.598 v -0.048 c 0.829,-0.478 0.829,-1.117 0.829,-2.01 v -8.438 h 1.529 z" /><path
       inkscape:connector-curvature="0"
       id="path136"
       style="fill:#f89c0e;fill-opacity:1;fill-rule:nonzero;stroke:none"
       d="m 243.5846,448.1575 h 16.151 v -12.208 c -0.235,-4.877 -4.988,-9.049 -8.165,-9.353 -3.247,0.579 -7.931,4.49 -7.986,9.626 0.022,0 0,11.935 0,11.935" /><path
       inkscape:connector-curvature="0"
       id="path140"
       style="fill:#1a2a4c;fill-opacity:1;fill-rule:nonzero;stroke:none"
       d="m 247.8124,446.146 c -0.024,-0.085 -0.048,-0.165 -0.048,-0.165 h -0.106 l 0.066,0.228 0.187,0.631 c 0.016,0.055 0.041,0.15 0.041,0.15 h 0.131 l 0.236,-0.781 c 0.012,-0.044 0.023,-0.085 0.04,-0.123 0.016,-0.036 0.038,-0.071 0.068,-0.091 l 0.003,-0.014 h -0.182 l -0.047,0.165 -0.059,0.209 h -0.273 z m 0.09,0.334 h 0.204 l -0.101,0.35 z" /><path
       inkscape:connector-curvature="0"
       id="path144"
       style="fill:#1a2a4c;fill-opacity:1;fill-rule:nonzero;stroke:none"
       d="m 248.6378,445.9807 h -0.122 v 0.204 0.604 c 0,0.085 -0.002,0.144 -0.058,0.187 l -0.001,0.015 0.194,-0.002 0.044,-0.072 0.397,-0.677 v 0.549 0.202 h 0.122 v -0.202 -0.859 c -0.1,0.024 -0.154,0.091 -0.204,0.178 l -0.372,0.637 v -0.56 z" /><path
       inkscape:connector-curvature="0"
       id="path148"
       style="fill:#1a2a4c;fill-opacity:1;fill-rule:nonzero;stroke:none"
       d="m 249.5426,445.9807 h -0.121 v 0.204 0.604 c 0,0.085 -0.002,0.144 -0.057,0.187 l -0.002,0.015 0.193,-0.002 0.044,-0.072 0.399,-0.677 v 0.549 l -0.001,0.202 h 0.121 v -0.202 -0.859 c -0.099,0.024 -0.153,0.091 -0.203,0.178 l -0.373,0.637 v -0.56 z" /><path
       inkscape:connector-curvature="0"
       id="path152"
       style="fill:#1a2a4c;fill-opacity:1;fill-rule:nonzero;stroke:none"
       d="m 246.0316,446.9818 c -0.068,0.017 -0.135,0.026 -0.204,0.026 -0.315,0 -0.536,-0.203 -0.536,-0.528 0,-0.304 0.195,-0.516 0.529,-0.516 0.103,0 0.202,0.022 0.304,0.043 v 0.07 0.349 0.068 h -0.192 v -0.003 c 0.058,-0.029 0.059,-0.102 0.059,-0.172 v -0.218 c -0.058,-0.019 -0.121,-0.029 -0.18,-0.029 -0.206,0 -0.373,0.185 -0.373,0.429 0,0.243 0.155,0.397 0.358,0.397 0.079,0 0.178,-0.019 0.231,-0.091 h 0.004 z" /><path
       inkscape:connector-curvature="0"
       id="path156"
       style="fill:#1a2a4c;fill-opacity:1;fill-rule:nonzero;stroke:none"
       d="m 246.5336,446.1029 c 0.01,0 0.043,-10e-4 0.078,0.005 0.037,0.004 0.075,0.015 0.093,0.036 l 0.016,0.003 -0.047,-0.167 h -0.404 v 0.219 0.571 0.221 h 0.316 0.063 v -0.123 l -0.143,-0.001 h -0.107 v -0.278 h 0.126 0.06 v -0.123 l -0.111,0.001 h -0.075 v -0.363 z" /><path
       inkscape:connector-curvature="0"
       id="path160"
       style="fill:#1a2a4c;fill-opacity:1;fill-rule:nonzero;stroke:none"
       d="m 244.6317,445.9807 h -0.122 v 0.204 0.604 c 0,0.085 -0.001,0.144 -0.056,0.187 l -0.002,0.015 0.193,-0.002 0.044,-0.072 0.398,-0.677 v 0.549 0.202 h 0.121 v -0.202 -0.859 c -0.099,0.024 -0.154,0.091 -0.204,0.178 l -0.372,0.637 v -0.56 z" /><path
       inkscape:connector-curvature="0"
       id="path164"
       style="fill:#1a2a4c;fill-opacity:1;fill-rule:nonzero;stroke:none"
       d="m 247.0794,446.1029 c 0.01,0 0.043,-10e-4 0.077,0.005 0.038,0.004 0.075,0.015 0.094,0.036 l 0.015,0.003 -0.048,-0.167 h -0.403 v 0.219 0.571 0.221 h 0.317 0.063 v -0.123 l -0.143,-0.001 h -0.108 v -0.278 h 0.127 0.059 v -0.123 l -0.11,0.001 h -0.076 v -0.363 z" /><path
       inkscape:connector-curvature="0"
       id="path168"
       style="fill:#1a2a4c;fill-opacity:1;fill-rule:nonzero;stroke:none"
       d="m 251.162,447.0027 c 0.047,-0.005 0.094,-0.017 0.139,-0.043 0.085,-0.05 0.152,-0.153 0.152,-0.273 0,-0.152 -0.096,-0.243 -0.207,-0.275 -0.084,-0.025 -0.172,-0.011 -0.241,0.004 v -0.418 h -0.137 v 0.807 c 0,0.085 -0.001,0.145 -0.057,0.188 l -0.002,0.014 h 0.187 0.023 c 0.047,0 0.095,10e-4 0.143,-0.004 m 0.14,-0.302 c 0,0.14 -0.099,0.195 -0.197,0.183 l -0.1,-0.008 v -0.367 l 0.078,-0.004 c 0.107,-0.008 0.219,0.054 0.219,0.196" /><path
       d="m 257.786,445.987 h 0.127 v 1.01 h -0.127 z"
       style="fill:#1a2a4c;fill-opacity:1;fill-rule:nonzero;stroke:none"
       id="path170"
       inkscape:connector-curvature="0" /><g
       id="g172"><g
         id="g174"
         clip-path="url(#clipPath178)"><g
           id="g180"
           transform="translate(253.402,445.9699)"><path
             d="m 0,0 h -0.137 v 0.435 l -0.202,0.398 c -0.016,0.033 -0.03,0.064 -0.048,0.092 -0.018,0.029 -0.028,0.044 -0.056,0.063 l -0.029,0.02 h 0.177 L -0.052,0.571 0.183,1.008 H 0.305 L 0,0.435 Z"
             style="fill:#1a2a4c;fill-opacity:1;fill-rule:nonzero;stroke:none"
             id="path182"
             inkscape:connector-curvature="0" /></g><g
           id="g184"
           transform="translate(253.9928,445.9699)"><path
             d="m 0,0 v 0.89 h -0.101 c -0.051,0 -0.106,-0.018 -0.143,-0.059 L -0.259,0.828 -0.215,1.01 H -0.16 0.346 0.394 V 0.89 H 0.129 V 0 Z"
             style="fill:#1a2a4c;fill-opacity:1;fill-rule:nonzero;stroke:none"
             id="path186"
             inkscape:connector-curvature="0" /></g><g
           id="g188"
           transform="translate(255.8005,446.1725)"><path
             d="m 0,0 -0.065,-0.166 c -0.064,-0.033 -0.132,-0.045 -0.201,-0.045 -0.315,0 -0.511,0.197 -0.511,0.514 0,0.308 0.196,0.511 0.469,0.511 0.081,0 0.163,-0.016 0.242,-0.036 V 0.614 C -0.14,0.665 -0.225,0.697 -0.312,0.697 -0.5,0.697 -0.63,0.544 -0.63,0.326 c 0,-0.22 0.136,-0.419 0.345,-0.419 0.101,0 0.201,0.04 0.285,0.093"
             style="fill:#1a2a4c;fill-opacity:1;fill-rule:nonzero;stroke:none"
             id="path190"
             inkscape:connector-curvature="0" /></g><g
           id="g192"
           transform="translate(256.1038,446.468)"><path
             d="M 0,0 V -0.479 H -0.138 V 0.3 c 0,0.034 0.002,0.078 -0.003,0.117 -0.006,0.039 -0.02,0.072 -0.047,0.083 L -0.193,0.517 H 0 V 0.121 H 0.427 V 0.517 H 0.558 V -0.481 H 0.427 V 0 Z"
             style="fill:#1a2a4c;fill-opacity:1;fill-rule:nonzero;stroke:none"
             id="path194"
             inkscape:connector-curvature="0" /></g><g
           id="g196"
           transform="translate(258.8479,446.1891)"><path
             d="m 0,0 -0.066,-0.167 c -0.063,-0.033 -0.131,-0.044 -0.201,-0.044 -0.315,0 -0.511,0.197 -0.511,0.515 0,0.308 0.196,0.51 0.47,0.51 0.081,0 0.163,-0.016 0.241,-0.036 V 0.615 c -0.073,0.05 -0.157,0.082 -0.245,0.082 -0.188,0 -0.318,-0.154 -0.318,-0.371 0,-0.22 0.135,-0.419 0.345,-0.419 0.1,0 0.201,0.04 0.285,0.093"
             style="fill:#1a2a4c;fill-opacity:1;fill-rule:nonzero;stroke:none"
             id="path198"
             inkscape:connector-curvature="0" /></g><g
           id="g200"
           transform="translate(252.8886,446.0935)"><path
             d="M 0,0 0.024,-0.001 H 0.031 C 0.076,0 0.147,0.009 0.173,0.04 L 0.188,0.042 0.141,-0.116 h -0.452 v 1.009 h 0.138 V -0.001 L -0.073,0 Z"
             style="fill:#1a2a4c;fill-opacity:1;fill-rule:nonzero;stroke:none"
             id="path202"
             inkscape:connector-curvature="0" /></g><g
           id="g204"
           transform="translate(252.0154,447.0336)"><path
             d="m 0,0 c -0.269,0.007 -0.483,-0.231 -0.483,-0.515 0,-0.307 0.215,-0.519 0.47,-0.519 0.255,0 0.473,0.221 0.473,0.526 C 0.46,-0.238 0.27,0.001 0,0 m -0.009,-0.109 c 0.203,0 0.323,-0.211 0.323,-0.429 0,-0.222 -0.125,-0.388 -0.32,-0.388 -0.202,0 -0.33,0.215 -0.33,0.424 0,0.226 0.128,0.393 0.327,0.393"
             style="fill:#1a2a4c;fill-opacity:1;fill-rule:nonzero;stroke:none"
             id="path206"
             inkscape:connector-curvature="0" /></g><g
           id="g208"
           transform="translate(254.7872,446.0928)"><path
             d="M 0,0 C 0.01,0 0.043,-0.001 0.078,0.004 0.115,0.008 0.152,0.019 0.171,0.04 L 0.187,0.043 0.14,-0.123 h -0.403 l -0.001,0.219 v 0.57 l 0.001,0.22 H 0.052 0.115 V 0.764 L -0.028,0.763 H -0.136 V 0.484 h 0.127 0.06 V 0.362 H -0.06 -0.136 V 0.001 Z"
             style="fill:#1a2a4c;fill-opacity:1;fill-rule:nonzero;stroke:none"
             id="path210"
             inkscape:connector-curvature="0" /></g><g
           id="g212"
           transform="translate(256.8881,445.9879)"><path
             d="M 0,0 V 0.808 C 0,0.893 -0.002,0.952 -0.057,0.996 L -0.06,1.01 0.134,1.008 0.177,0.936 0.576,0.259 V 1.01 H 0.697 V -0.05 C 0.598,-0.027 0.543,0.041 0.494,0.127 L 0.121,0.764 V 0 Z"
             style="fill:#1a2a4c;fill-opacity:1;fill-rule:nonzero;stroke:none"
             id="path214"
             inkscape:connector-curvature="0" /></g><g
           id="g216"
           transform="translate(258.79,436.0605)"><path
             d="m 0,0 c -0.119,-4.029 -4.266,-7.834 -7.253,-8.502 -2.429,0.686 -6.986,4.106 -7.004,8.751 L -14.26,6.206 H 0 Z"
             style="fill:#a52121;fill-opacity:1;fill-rule:nonzero;stroke:none"
             id="path218"
             inkscape:connector-curvature="0" /></g><g
           id="g220"
           transform="translate(246.6342,441.4001)"><path
             d="m 0,0 c 0.353,0.07 0.721,0.108 1.095,0.108 1.512,0 2.882,-0.607 3.882,-1.591 0.998,0.984 2.37,1.591 3.882,1.591 0.372,0 0.744,-0.037 1.095,-0.107 v -9.417 c -0.354,0.071 -0.719,0.108 -1.095,0.108 -1.512,0 -2.884,-0.607 -3.882,-1.59 -1,0.983 -2.37,1.59 -3.882,1.59 C 0.72,-9.308 0.354,-9.345 0,-9.416 Z"
             style="fill:#1a2a4c;fill-opacity:1;fill-rule:nonzero;stroke:none"
             id="path222"
             inkscape:connector-curvature="0" /></g></g></g><g
       id="g224"><g
         id="g226"
         clip-path="url(#clipPath230)"><path
           d="m 245.889,442.912 h 6.05 v -12.507 h -6.05 z"
           style="fill:#285e95;fill-opacity:1;fill-rule:nonzero;stroke:none"
           id="path232"
           inkscape:connector-curvature="0" /><path
           d="m 245.889,442.912 h 6.05 v -12.507 h -6.05 z"
           style="fill:none;stroke:#231f20;stroke-width:0.55199999;stroke-linecap:butt;stroke-linejoin:miter;stroke-miterlimit:10;stroke-dasharray:none;stroke-opacity:1"
           id="path234"
           inkscape:connector-curvature="0" /></g></g><g
       id="g236"><g
         id="g238"
         clip-path="url(#clipPath242)"><g
           id="g244"
           transform="translate(247.729,432.7562)"><path
             d="m 0,0 c -0.199,0 -0.296,-0.011 -0.491,-0.031 v 8.089 c 0.195,0.021 0.28,0.032 0.48,0.032 1.458,0 2.783,-0.562 3.772,-1.485 0.033,-0.042 0.082,-0.073 0.121,-0.112 0.035,0.035 0.095,0.084 0.126,0.124 0.989,0.927 2.293,1.468 3.756,1.468 0.2,0 0.296,-0.01 0.49,-0.03 V -0.031 C 8.06,-0.011 7.964,0 7.764,0 6.252,0 4.88,-0.607 3.882,-1.591 2.883,-0.607 1.512,0 0,0"
             style="fill:#ffffff;fill-opacity:1;fill-rule:nonzero;stroke:none"
             id="path246"
             inkscape:connector-curvature="0" /></g><g
           id="g248"
           transform="translate(249.6668,435.6179)"><path
             d="m 0,0 c 0,-1.071 0.867,-1.939 1.937,-1.939 1.071,0 1.939,0.868 1.939,1.939 0,1.071 -0.868,1.937 -1.939,1.937 C 0.867,1.937 0,1.071 0,0"
             style="fill:#f89c0e;fill-opacity:1;fill-rule:nonzero;stroke:none"
             id="path250"
             inkscape:connector-curvature="0" /></g><g
           id="g252"
           transform="translate(247.1976,443.6832)"><path
             d="m 0,0 c -0.205,-0.142 -0.225,-0.18 -0.275,-0.267 -0.05,-0.087 0.027,-0.151 0.078,-0.153 0.089,-0.003 0.239,0.087 0.417,0.178 0.178,0.091 0.287,0.289 0.287,0.331 0,0.042 -0.044,0.078 -0.114,0.076 C 0.323,0.162 0.206,0.142 0,0 M 0.307,0.515 C 0.318,0.454 0.314,0.439 0.375,0.383 0.435,0.326 0.526,0.359 0.587,0.371 0.647,0.383 0.852,0.409 0.965,0.401 1.078,0.393 1.125,0.367 1.17,0.314 1.249,0.219 1.279,0.134 1.297,0.046 1.311,-0.028 1.315,-0.135 1.22,-0.325 1.2,-0.364 1.132,-0.456 1.083,-0.479 1.033,-0.503 0.988,-0.545 0.916,-0.553 0.843,-0.559 0.805,-0.53 0.805,-0.53 c 0,0 0.17,0.043 0.245,0.15 0.074,0.108 0.13,0.229 0.125,0.315 C 1.166,0.081 1.135,0.142 1.067,0.212 1.009,0.272 0.953,0.254 0.912,0.254 0.87,0.254 0.825,0.205 0.813,0.17 0.802,0.136 0.791,0.056 0.738,0.008 0.685,-0.041 0.507,-0.223 0.424,-0.295 0.341,-0.366 0.159,-0.463 0.045,-0.502 c -0.153,-0.051 -0.326,-0.069 -0.419,0 -0.042,0.033 -0.05,0.118 -0.049,0.184 0.002,0.102 0.026,0.163 0.11,0.246 0.082,0.084 0.257,0.205 0.332,0.246 C 0.095,0.215 0.095,0.272 0.106,0.318 0.118,0.363 0.103,0.423 0.069,0.462 0.034,0.5 0.012,0.51 -0.072,0.518 -0.155,0.527 -0.182,0.48 -0.241,0.493 c -0.061,0.01 -0.065,0.064 -0.054,0.124 0.011,0.061 0.077,0.091 0.121,0.098 0.046,0.008 0.114,0.008 0.186,0.03 C 0.083,0.768 0.144,0.81 0.167,0.829 0.19,0.847 0.2,0.924 0.223,0.988 0.246,1.052 0.284,1.075 0.307,1.101 0.33,1.128 0.382,1.158 0.408,1.135 0.435,1.112 0.461,1.079 0.522,1.082 0.582,1.086 0.621,1.093 0.678,1.139 0.734,1.184 0.953,1.316 1.052,1.355 1.149,1.393 1.264,1.358 1.35,1.291 1.437,1.222 1.479,1.112 1.491,1.036 1.501,0.962 1.487,0.855 1.423,0.817 1.358,0.78 1.271,0.673 1.184,0.678 1.097,0.681 1.044,0.708 1.06,0.738 1.075,0.768 1.132,0.791 1.173,0.844 1.213,0.897 1.34,0.998 1.35,1.041 1.362,1.082 1.358,1.123 1.324,1.158 1.29,1.192 1.29,1.211 1.162,1.23 1.033,1.248 0.836,1.056 0.757,0.962 0.678,0.867 0.477,0.738 0.39,0.7 0.303,0.662 0.294,0.574 0.307,0.515"
             style="fill:#1a2a4c;fill-opacity:1;fill-rule:nonzero;stroke:none"
             id="path254"
             inkscape:connector-curvature="0" /></g><g
           id="g256"
           transform="translate(250.042,444.8101)"><path
             d="M 0,0 C 0.035,-0.019 0.174,-0.188 0.171,-0.321 0.166,-0.453 0.132,-0.647 0.087,-0.729 0.042,-0.813 -0.052,-0.893 -0.072,-0.914 c -0.019,-0.024 -0.026,-0.05 -0.026,-0.05 l 0.004,-0.216 c 0,0 0.027,-0.02 0.049,-0.011 0.054,0.022 0.098,0.122 0.11,0.148 0.012,0.025 0.049,0.087 0.114,0.143 0.064,0.058 0.222,0.181 0.222,0.181 0,0 0.012,-0.044 -0.011,-0.079 C 0.367,-0.832 0.303,-0.911 0.296,-0.938 0.288,-0.964 0.263,-1.03 0.235,-1.062 0.204,-1.096 0.135,-1.155 0.091,-1.229 0.043,-1.308 0.046,-1.361 0.023,-1.381 0,-1.398 -0.048,-1.422 -0.098,-1.418 c -0.049,0.003 -0.09,0.042 -0.117,0.061 -0.027,0.019 -0.007,0.042 -0.007,0.042 L -0.23,-0.98 c 0,0 -0.019,0.026 -0.03,0.077 -0.012,0.049 -0.008,0.03 -0.035,0.056 -0.027,0.027 -0.037,0.133 -0.007,0.151 0.03,0.02 0.06,0.053 0.075,0.069 0.016,0.015 0.064,0.026 0.083,0.01 0.02,-0.014 0.05,-0.037 0.084,-0.037 0.033,0 0.08,0.015 0.08,0.045 0,0.031 0.01,0.163 0.01,0.181 0,0.02 0,0.084 -0.03,0.133 -0.03,0.05 -0.109,0.137 -0.166,0.13 -0.056,-0.008 -0.205,-0.008 -0.235,-0.02 -0.03,-0.01 -0.022,-0.031 -0.038,-0.037 -0.051,-0.024 -0.096,-0.03 -0.143,0 -0.023,0.014 -0.015,0.108 0,0.144 C -0.567,-0.045 -0.525,0 -0.484,0 -0.442,0 -0.208,0.016 -0.163,0.016 -0.117,0.016 -0.034,0.02 0,0"
             style="fill:#1a2a4c;fill-opacity:1;fill-rule:nonzero;stroke:none"
             id="path258"
             inkscape:connector-curvature="0" /></g><g
           id="g260"
           transform="translate(251.0377,443.7982)"><path
             d="m 0,0 c 0,0 -0.03,0.008 -0.061,-0.009 -0.03,-0.016 -0.042,-0.042 -0.067,-0.1 -0.025,-0.058 0.006,-0.067 0.036,-0.061 0.031,0.005 0.04,0.021 0.074,0.064 C 0.014,-0.065 0,0 0,0 m -0.175,1.057 c -0.003,0 0.201,0.171 0.349,0.22 C 0.321,1.327 0.45,1.33 0.529,1.323 0.608,1.315 0.707,1.258 0.733,1.174 0.76,1.092 0.779,0.967 0.733,0.862 0.688,0.755 0.559,0.646 0.491,0.615 0.423,0.585 0.306,0.566 0.306,0.566 c 0,0 -0.03,-0.038 -0.057,-0.045 C 0.222,0.512 0.192,0.487 0.192,0.487 c 0,0 -0.016,0 -0.018,-0.023 -0.005,-0.023 -0.012,-0.34 -0.012,-0.34 0,0 0.037,-0.02 0.057,-0.05 0.018,-0.03 0.044,-0.075 0.044,-0.117 0,-0.041 0.013,-0.265 0.013,-0.265 0,0 0.015,-0.038 0.041,-0.06 0.027,-0.023 0.06,-0.046 0.06,-0.046 0,0 0.092,-0.004 0.126,-0.014 0.033,-0.013 0.068,-0.02 0.105,-0.02 0.038,0 0.095,0.004 0.117,-0.014 0.023,-0.02 0.02,-0.053 0.012,-0.073 -0.007,-0.018 -0.064,-0.071 -0.114,-0.071 -0.049,0 -0.124,-0.031 -0.159,-0.031 -0.033,0 -0.052,0.02 -0.075,0.027 -0.023,0.008 -0.083,0 -0.113,0.03 -0.031,0.029 -0.084,0.079 -0.107,0.118 -0.022,0.037 -0.026,0.185 -0.022,0.199 0.003,0.016 -0.027,0.042 -0.049,0.042 -0.023,0 -0.072,-0.034 -0.103,-0.053 -0.03,-0.019 -0.12,-0.053 -0.162,-0.006 -0.042,0.044 -0.058,0.136 -0.035,0.207 0.024,0.072 0.08,0.147 0.133,0.204 0.054,0.057 0.151,0.106 0.151,0.106 L 0.09,0.491 c 0,0 -0.049,0.026 -0.087,0.083 C -0.035,0.63 -0.076,0.721 -0.001,0.755 0.075,0.789 0.09,0.812 0.135,0.77 0.181,0.729 0.215,0.699 0.23,0.694 0.245,0.691 0.329,0.699 0.377,0.725 0.427,0.751 0.503,0.797 0.548,0.849 0.593,0.903 0.623,0.963 0.612,1.057 0.6,1.152 0.567,1.167 0.506,1.182 0.446,1.197 0.317,1.197 0.253,1.182 0.188,1.167 0.132,1.152 0.056,1.122 -0.019,1.092 -0.072,1.043 -0.099,1.036 -0.125,1.027 -0.171,1.057 -0.175,1.057"
             style="fill:#1a2a4c;fill-opacity:1;fill-rule:nonzero;stroke:none"
             id="path262"
             inkscape:connector-curvature="0" /></g><g
           id="g264"
           transform="translate(252.6029,444.6555)"><path
             d="m 0,0 c 0.053,0.004 0.601,0.004 0.601,0.004 0,0 0.065,0.015 0.122,0.007 C 0.779,0.004 0.84,-0.042 0.851,-0.08 0.862,-0.117 0.848,-0.197 0.817,-0.223 0.787,-0.25 0.582,-0.374 0.582,-0.374 c 0,0 -0.211,-0.164 -0.238,-0.194 C 0.317,-0.598 0.33,-0.628 0.307,-0.65 0.283,-0.673 0.253,-0.699 0.253,-0.699 L 0.186,-0.817 c 0,0 -0.027,-0.053 -0.008,-0.068 0.019,-0.015 0.057,-0.019 0.087,-0.008 0.03,0.011 0.113,0.038 0.25,0.064 0.135,0.028 0.333,0.019 0.333,0.019 0,0 0.064,-0.025 0.041,-0.075 C 0.866,-0.934 0.843,-0.983 0.81,-0.995 0.776,-1.006 0.738,-0.976 0.707,-0.972 0.677,-0.969 0.605,-0.965 0.582,-0.979 0.56,-0.995 0.518,-0.987 0.442,-1.006 0.367,-1.026 0.219,-1.108 0.219,-1.108 c 0,0 -0.125,-0.064 -0.211,-0.056 -0.087,0.007 -0.121,0.041 -0.125,0.138 -0.004,0.1 0.041,0.156 0.09,0.206 0.05,0.049 0.193,0.158 0.205,0.177 0.011,0.019 0.003,0.068 0.038,0.102 0.034,0.034 0.114,0.102 0.114,0.102 l 0.143,0.147 c 0,0 0.038,0.073 0.011,0.088 -0.026,0.015 -0.087,0 -0.087,0 0,0 -0.064,-0.027 -0.114,-0.015 -0.048,0.011 -0.064,0.03 -0.064,0.03 0,0 -0.14,0 -0.173,0.008 -0.035,0.007 -0.076,0.041 -0.099,0.097 -0.023,0.057 0,0.08 0.053,0.084"
             style="fill:#1a2a4c;fill-opacity:1;fill-rule:nonzero;stroke:none"
             id="path266"
             inkscape:connector-curvature="0" /></g><g
           id="g268"
           transform="translate(254.7599,443.5028)"><path
             d="m 0,0 c -0.103,-0.054 -0.096,-0.023 -0.146,-0.078 -0.051,-0.056 -0.017,-0.074 0.017,-0.106 0.033,-0.033 0.132,-0.025 0.188,-0.02 0.055,0.006 0.068,0.04 0.137,0.078 0.068,0.038 0.141,0.1 0.154,0.165 C 0.365,0.103 0.31,0.116 0.231,0.106 0.154,0.095 0.104,0.052 0,0 m -0.22,1.281 c 0,0 0.022,0.049 0.037,0.071 0.014,0.024 0.038,0.065 0.072,0.092 C -0.077,1.47 -0.032,1.462 0.018,1.44 0.067,1.417 0.102,1.368 0.128,1.339 0.155,1.309 0.184,1.281 0.219,1.281 c 0.034,0 0.094,0.004 0.12,0.015 C 0.367,1.309 0.434,1.373 0.487,1.417 0.54,1.462 0.635,1.49 0.676,1.505 0.717,1.52 0.76,1.534 0.797,1.531 0.835,1.527 0.895,1.475 0.93,1.437 0.964,1.398 0.979,1.289 0.956,1.24 0.933,1.191 0.958,1.101 0.797,0.995 0.713,0.938 0.572,0.839 0.548,0.801 0.495,0.716 0.57,0.632 0.61,0.569 0.658,0.495 0.644,0.439 0.674,0.413 0.704,0.386 0.964,0.389 0.997,0.373 1.032,0.359 1.085,0.295 1.103,0.268 1.123,0.241 1.043,0.226 1.043,0.226 H 0.816 C 0.748,0.226 0.658,0.213 0.637,0.169 0.59,0.064 0.52,-0.035 0.472,-0.092 0.423,-0.149 0.225,-0.252 0.189,-0.262 c -0.131,-0.037 -0.327,-0.065 -0.368,-0.06 -0.041,0.003 -0.09,0.037 -0.133,0.037 -0.04,0 -0.087,0.023 -0.117,0.057 -0.03,0.035 0.027,0.057 0.053,0.079 0.027,0.023 0.144,0.164 0.33,0.285 C 0.08,0.216 0.203,0.239 0.305,0.27 0.374,0.291 0.404,0.316 0.442,0.351 0.479,0.385 0.472,0.457 0.459,0.485 0.406,0.596 0.374,0.632 0.362,0.71 0.358,0.743 0.411,0.808 0.442,0.831 0.472,0.854 0.548,0.877 0.566,0.895 0.585,0.914 0.585,0.957 0.604,0.982 0.623,1.008 0.726,1.038 0.778,1.194 0.796,1.248 0.771,1.309 0.733,1.345 0.695,1.383 0.676,1.38 0.645,1.368 0.615,1.357 0.313,1.164 0.268,1.141 0.222,1.119 0.158,1.123 0.128,1.13 0.097,1.138 0.063,1.187 0.041,1.225 0.018,1.262 -0.024,1.262 -0.065,1.278 c -0.042,0.015 -0.031,0 -0.057,-0.023 -0.026,-0.023 -0.083,0 -0.083,0 0,0 -0.019,-0.011 -0.053,-0.038 C -0.292,1.191 -0.292,1.187 -0.304,1.126 -0.315,1.066 -0.327,1.054 -0.372,1.016 -0.416,0.979 -0.455,0.952 -0.5,0.972 -0.546,0.99 -0.591,1.084 -0.603,1.141 c -0.011,0.057 0.02,0.13 0.061,0.194 0.042,0.063 0.079,0.071 0.126,0.056 0.044,-0.015 0.067,-0.098 0.067,-0.098 0,0 0.114,-0.012 0.129,-0.012"
             style="fill:#1a2a4c;fill-opacity:1;fill-rule:nonzero;stroke:none"
             id="path270"
             inkscape:connector-curvature="0" /></g><g
           id="g272"
           transform="translate(256.7559,444.7914)"><path
             d="M 0,0 C 0,0 0.129,-0.007 0.166,0.008 0.204,0.023 0.258,0.072 0.299,0.084 0.34,0.095 0.363,0.077 0.386,0.053 0.409,0.03 0.428,-0.034 0.431,-0.048 0.434,-0.064 0.458,-0.084 0.484,-0.06 0.511,-0.037 0.499,0.016 0.515,0.046 0.53,0.077 0.56,0.186 0.545,0.239 0.53,0.292 0.511,0.288 0.458,0.292 0.405,0.296 0.329,0.269 0.291,0.246 0.253,0.223 0.208,0.186 0.181,0.178 0.155,0.171 0.114,0.178 0.099,0.152 0.084,0.125 0.053,0.084 0.034,0.072 0.015,0.06 0,0 0,0"
             style="fill:#1a2a4c;fill-opacity:1;fill-rule:nonzero;stroke:none"
             id="path274"
             inkscape:connector-curvature="0" /></g><g
           id="g276"
           transform="translate(257.1419,444.542)"><path
             d="m 0,0 c 0,0 0.005,-0.148 0.019,-0.178 0.015,-0.03 0.072,-0.086 0.105,-0.109 0.034,-0.023 0.088,-0.046 0.114,-0.046 0.027,0 0.076,-0.057 0.098,-0.083 C 0.359,-0.442 0.355,-0.476 0.333,-0.507 0.31,-0.537 0.272,-0.53 0.245,-0.571 0.22,-0.612 0.216,-0.627 0.155,-0.64 0.094,-0.65 -0.129,-0.661 -0.129,-0.661 c 0,0 -0.027,-0.016 -0.05,-0.043 -0.021,-0.026 -0.025,-0.026 -0.03,-0.048 -0.003,-0.023 -0.003,-0.333 -0.003,-0.333 0,0 0.033,-0.007 0.049,-0.053 0.016,-0.046 0.042,-0.065 0.031,-0.118 -0.011,-0.053 -0.008,-0.098 -0.047,-0.109 -0.037,-0.011 -0.082,0.034 -0.123,0.082 -0.042,0.051 -0.045,0.084 -0.045,0.084 l -0.004,0.614 c 0,0 -0.043,-0.007 -0.046,0.067 -0.001,0.038 0.004,0.28 0.004,0.28 0,0 0.026,0.065 0.079,0.06 0.053,-0.003 0.068,-0.018 0.076,-0.049 0.008,-0.03 0.003,-0.132 0.003,-0.132 0,0 -0.008,-0.079 0.023,-0.106 0.03,-0.027 0.056,-0.045 0.11,-0.057 0.053,-0.011 0.102,-0.003 0.132,0.023 0.03,0.026 0.054,0.057 0.03,0.105 -0.022,0.05 -0.019,0.073 -0.052,0.096 -0.034,0.022 -0.099,0.041 -0.11,0.075 -0.011,0.034 -0.008,0.091 0.018,0.132 C -0.056,-0.049 0,0 0,0"
             style="fill:#1a2a4c;fill-opacity:1;fill-rule:nonzero;stroke:none"
             id="path278"
             inkscape:connector-curvature="0" /></g><g
           id="g280"
           transform="translate(258.1666,444.7799)"><path
             d="m 0,0 c 0.076,0.008 0.174,-0.018 0.201,-0.048 0.026,-0.03 0.06,-0.209 0.06,-0.209 0,0 0.05,-0.067 0.11,-0.064 0.06,0.004 0.071,0.031 0.076,0.064 0.004,0.035 -0.005,0.291 -0.005,0.291 0,0 -0.03,0.038 -0.045,0.083 C 0.382,0.163 0.355,0.197 0.322,0.204 0.288,0.212 0.121,0.201 0.076,0.186 0.03,0.171 -0.026,0.209 -0.049,0.236 -0.072,0.261 -0.117,0.292 -0.196,0.223 -0.276,0.156 -0.303,0.137 -0.31,0.114 -0.317,0.092 -0.34,-0.004 -0.378,-0.027 c -0.038,-0.021 -0.08,-0.021 -0.129,-0.037 -0.049,-0.014 -0.154,-0.098 -0.177,-0.128 -0.023,-0.03 -0.094,-0.083 -0.091,-0.114 0.004,-0.03 0.045,-0.057 0.083,-0.045 0.038,0.012 0.023,0.064 0.136,0.064 0.114,0 0.114,-0.057 0.129,-0.091 0.016,-0.033 0.007,-0.216 0.019,-0.241 0.011,-0.027 0.056,-0.054 0.086,-0.069 0.031,-0.016 0.065,0.005 0.085,-0.034 0.018,-0.038 0.074,-0.087 0.066,-0.114 -0.007,-0.026 -0.056,-0.067 -0.082,-0.101 -0.027,-0.035 -0.175,-0.222 -0.251,-0.285 -0.187,-0.157 -0.331,-0.203 -0.331,-0.203 0,0 0.138,-0.015 0.377,0.08 0.066,0.025 0.193,0.135 0.193,0.135 0,0 0.038,0.018 0.076,0.003 0.038,-0.015 0.049,-0.036 0.068,-0.082 0.019,-0.046 0.087,-0.159 0.129,-0.186 0.042,-0.026 0.064,-0.083 0.098,-0.091 0.034,-0.007 0.11,-0.015 0.185,-0.01 0.076,0.003 0.151,0.01 0.208,0.06 0.057,0.049 0.113,0.105 0.113,0.143 0,0.038 -0.017,0.095 -0.025,0.114 -0.008,0.019 -0.012,0.242 -0.012,0.242 0,0 -0.019,0.004 -0.03,-0.019 C 0.534,-1.058 0.522,-1.229 0.507,-1.252 0.492,-1.273 0.484,-1.354 0.435,-1.381 0.386,-1.407 0.22,-1.433 0.155,-1.403 c -0.064,0.03 -0.135,0.064 -0.166,0.178 -0.03,0.113 -0.053,0.291 -0.042,0.332 0.012,0.043 0.094,0.11 0.106,0.167 0.011,0.057 0.064,0.06 0.064,0.117 0,0.057 -0.023,0.137 -0.082,0.133 -0.061,-0.004 -0.114,-0.019 -0.145,-0.039 -0.03,-0.018 -0.125,-0.044 -0.151,-0.018 -0.026,0.027 -0.049,0.041 -0.049,0.072 0,0.03 -0.007,0.226 0.003,0.261 0.012,0.035 0.008,0.091 0.08,0.122 C -0.155,-0.048 -0.076,-0.007 0,0"
             style="fill:#1a2a4c;fill-opacity:1;fill-rule:nonzero;stroke:none"
             id="path282"
             inkscape:connector-curvature="0" /></g><g
           id="g284"
           transform="translate(245.7417,444.3645)"><path
             d="m 0,0 c 0.023,-0.034 0.053,-0.22 0.046,-0.246 -0.008,-0.027 -0.088,-0.036 -0.114,0.003 -0.019,0.03 -0.004,0.065 -0.019,0.095 -0.031,0.062 -0.065,0.08 -0.079,0.148 -0.017,0.07 0.014,0.083 0.061,0.08 C -0.061,0.075 -0.023,0.034 0,0 m -0.923,0.465 c 0,0 -0.045,-0.016 -0.067,-0.016 -0.024,0 -0.084,0.032 -0.099,0.076 -0.016,0.046 -0.023,0.167 0.015,0.152 0.037,-0.014 0.091,-0.098 0.091,-0.136 0,-0.039 0.06,-0.076 0.06,-0.076 m 0.715,-1.594 c 0,0 -0.018,-0.016 -0.016,-0.034 0.003,-0.016 0.014,-0.044 0.033,-0.074 0.02,-0.031 0.075,-0.025 0.075,-0.025 0,0 -0.013,0.058 -0.025,0.083 -0.011,0.025 -0.067,0.05 -0.067,0.05 m -0.817,0.25 c -0.026,-0.008 -0.071,-0.044 -0.052,-0.067 0.021,-0.023 0.068,-0.014 0.085,-0.005 0.017,0.008 -0.008,0.081 -0.033,0.072 m 0.25,0.385 C -0.82,-0.515 -0.851,-0.545 -0.876,-0.573 -0.9,-0.601 -0.884,-0.62 -0.862,-0.642 c 0.023,-0.022 0.037,-0.047 0.07,-0.051 0.033,-0.002 0.05,0.023 0.066,0.029 0.017,0.004 0.067,0.009 0.098,0.03 0.03,0.022 0.053,0.042 0.059,0.092 0.006,0.05 -0.02,0.084 -0.073,0.094 -0.053,0.012 -0.088,-0.029 -0.133,-0.046 m 0.499,0.978 c 0,0 -0.007,-0.012 0.011,-0.026 C -0.246,0.442 -0.208,0.435 -0.212,0.389 -0.216,0.344 -0.276,0.305 -0.31,0.287 -0.344,0.269 -0.408,0.226 -0.431,0.204 -0.454,0.181 -0.439,0.091 -0.424,0.064 -0.408,0.037 -0.408,0 -0.462,-0.034 c -0.052,-0.034 -0.075,-0.057 -0.087,-0.114 -0.011,-0.057 0.019,-0.075 0.038,-0.087 0.019,-0.011 0.205,0 0.235,-0.003 0.03,-0.005 0.064,-0.027 0.057,-0.054 -0.007,-0.026 -0.064,-0.029 -0.099,-0.034 -0.034,-0.004 -0.102,-0.018 -0.121,-0.045 -0.018,-0.026 -0.008,-0.204 -0.004,-0.246 0.004,-0.041 0.043,-0.057 0.08,-0.057 0.038,0 0.095,0.05 0.117,0.072 0.022,0.023 0.064,0 0.061,-0.027 -0.004,-0.025 -0.027,-0.075 -0.039,-0.116 -0.011,-0.043 -0.022,-0.076 -0.041,-0.099 -0.018,-0.022 0.004,-0.041 0.023,-0.09 0.018,-0.049 0.068,-0.084 0.121,-0.11 0.053,-0.026 0.132,-0.175 0.155,-0.25 0.022,-0.076 -0.023,-0.14 -0.045,-0.17 -0.023,-0.03 -0.129,-0.003 -0.144,0.004 -0.015,0.008 -0.11,0.117 -0.148,0.166 -0.037,0.05 -0.072,0.084 -0.132,0.091 -0.061,0.008 -0.145,-0.036 -0.185,-0.027 -0.016,0.004 -0.044,0.009 -0.064,0.011 -0.069,0.009 -0.027,0.04 0.011,0.05 0.037,0.012 0.143,0.087 0.186,0.133 0.04,0.045 0.059,0.158 0.059,0.184 0,0.027 -0.034,0.088 -0.041,0.107 -0.008,0.019 -0.023,0.027 -0.121,0.03 -0.098,0.004 -0.144,-0.003 -0.16,-0.023 -0.014,-0.019 -0.059,-0.083 -0.097,-0.094 -0.038,-0.012 -0.027,-0.05 -0.046,-0.08 -0.018,-0.03 -0.003,-0.124 0.015,-0.155 0.019,-0.03 0,-0.087 -0.015,-0.102 -0.015,-0.015 -0.136,0.007 -0.136,0.007 0,0 -0.167,0.179 -0.189,0.205 -0.023,0.026 -0.019,0.091 0.004,0.125 0.023,0.034 0.117,0.026 0.166,0.037 0.049,0.012 0.083,0.087 0.083,0.121 0,0.035 -0.018,0.084 -0.037,0.095 -0.019,0.011 -0.072,0.007 -0.122,0.011 -0.049,0.004 -0.037,0.046 -0.026,0.061 0.012,0.015 0.118,0.126 0.17,0.159 0.054,0.034 0.174,0.094 0.193,0.105 0.019,0.012 0.03,0.038 0.027,0.053 -0.004,0.015 -0.054,0.061 -0.094,0.076 -0.042,0.016 -0.054,0.05 -0.027,0.064 0.027,0.016 0.124,0.103 0.151,0.133 0.026,0.031 0.007,0.049 -0.034,0.075 C -0.806,0.185 -0.957,0.152 -1.01,0.14 -1.063,0.129 -1.085,0.144 -1.124,0.178 c -0.037,0.033 0.035,0.041 0.076,0.048 0.042,0.008 0.061,0.039 0.122,0.054 0.06,0.015 0.125,0.015 0.189,0.025 0.064,0.013 0.124,0.032 0.124,0.032 0,0 0.038,0.037 0.087,0.068 0.049,0.03 0.113,0.076 0.133,0.094 0.018,0.019 0.01,0.03 0.01,0.061 0,0.029 0.07,0.098 0.07,0.146 0,0.051 -0.05,0.08 -0.065,0.096 C -0.393,0.816 -0.397,0.885 -0.39,0.889 -0.383,0.893 -0.276,0.9 -0.246,0.893 -0.216,0.885 -0.197,0.859 -0.174,0.79 -0.152,0.722 -0.208,0.65 -0.239,0.602 -0.268,0.553 -0.276,0.484 -0.276,0.484"
             style="fill:#1a2a4c;fill-opacity:1;fill-rule:nonzero;stroke:none"
             id="path286"
             inkscape:connector-curvature="0" /></g><g
           id="g288"
           transform="translate(249.3378,435.6179)"><path
             d="m 0,0 c 0,-1.253 1.016,-2.268 2.268,-2.268 1.253,0 2.267,1.015 2.267,2.268 0,1.251 -1.014,2.267 -2.267,2.267 C 1.016,2.267 0,1.251 0,0 M -0.734,1.245 -0.312,1.977 0.083,1.75 C 0.211,1.911 0.356,2.057 0.517,2.186 L 0.29,2.581 1.022,3.002 1.25,2.609 C 1.439,2.683 1.639,2.737 1.846,2.768 V 3.223 H 2.691 V 2.768 C 2.897,2.737 3.097,2.683 3.285,2.609 L 3.513,3.002 4.245,2.581 4.018,2.187 C 4.179,2.057 4.328,1.909 4.457,1.746 L 4.851,1.973 5.273,1.242 4.88,1.014 C 4.952,0.825 5.006,0.627 5.037,0.421 H 5.492 V -0.423 H 5.037 C 5.006,-0.63 4.951,-0.829 4.879,-1.018 L 5.271,-1.246 4.849,-1.978 4.455,-1.751 C 4.326,-1.912 4.178,-2.059 4.018,-2.188 L 4.245,-2.582 3.513,-3.004 3.285,-2.611 C 3.095,-2.685 2.895,-2.74 2.688,-2.77 V -3.225 H 1.843 V -2.77 C 1.637,-2.738 1.439,-2.684 1.25,-2.61 L 1.022,-3.004 0.29,-2.582 0.518,-2.188 c -0.16,0.129 -0.307,0.275 -0.435,0.436 l -0.395,-0.228 -0.422,0.732 0.393,0.227 c -0.074,0.19 -0.128,0.391 -0.159,0.598 H -0.958 V 0.421 H -0.5 c 0.031,0.207 0.085,0.408 0.159,0.597 z"
             style="fill:#f89c0e;fill-opacity:1;fill-rule:nonzero;stroke:none"
             id="path290"
             inkscape:connector-curvature="0" /></g><g
           id="g292"
           transform="translate(254.1692,435.6499)"><path
             d="m 0,0 h -1.249 c -0.047,-0.43 -0.12,-0.991 -0.296,-0.993 -0.23,0.003 -0.252,0.57 -0.334,1.178 -0.053,0.382 -0.127,0.734 -0.27,0.737 -0.472,0.003 -0.212,-2.528 -0.694,-2.535 -0.287,0.003 -0.301,0.893 -0.37,1.616 -0.026,0.44 -0.107,1.262 -0.32,1.262 C -3.824,1.265 -3.871,0 -3.871,0 h -1.258"
             style="fill:none;stroke:#1a2a4c;stroke-width:0.134;stroke-linecap:butt;stroke-linejoin:miter;stroke-miterlimit:3.86400008;stroke-dasharray:none;stroke-opacity:1"
             id="path294"
             inkscape:connector-curvature="0" /></g></g></g></g></svg>